<?xml version="1.0" standalone="no"?>
<!DOCTYPE svg PUBLIC "-//W3C//DTD SVG 20010904//EN"
 "http://www.w3.org/TR/2001/REC-SVG-20010904/DTD/svg10.dtd">
<svg version="1.0" xmlns="http://www.w3.org/2000/svg"
 width="744.000000pt" height="601.000000pt" viewBox="0 0 744.000000 601.000000"
 preserveAspectRatio="xMidYMid meet">

<g transform="translate(0.000000,601.000000) scale(0.100000,-0.100000)"
fill="#000000" stroke="none">
<path d="M957 5898 c-62 -37 -77 -81 -77 -236 l0 -132 -263 0 c-253 0 -264 -1
-307 -22 -28 -14 -56 -40 -75 -68 l-30 -45 -3 -2475 c-2 -2231 -1 -2479 13
-2517 20 -51 57 -90 110 -114 39 -18 162 -19 3383 -19 2995 0 3346 2 3380 15
47 20 79 50 103 97 19 36 19 99 19 2518 0 2419 0 2482 -19 2518 -24 47 -56 77
-103 97 -31 12 -92 15 -363 15 l-325 0 0 130 c0 96 -4 140 -16 170 -41 101
-169 119 -244 34 l-30 -35 0 -150 0 -149 -227 2 -228 3 -5 152 c-5 152 -5 152
-35 183 -58 60 -149 64 -204 9 -41 -41 -51 -84 -51 -227 l0 -122 -227 2 -228
3 -5 147 c-4 128 -8 150 -26 175 -63 86 -189 80 -241 -12 -20 -36 -23 -54 -23
-177 l0 -138 -225 0 -225 0 0 132 c0 147 -15 199 -68 234 -39 26 -123 25 -158
-2 -63 -47 -69 -63 -72 -220 l-4 -144 -224 0 -224 0 0 138 c0 151 -10 187 -63
226 -39 29 -125 29 -163 1 -54 -41 -64 -76 -64 -227 l0 -138 -225 0 -225 0 0
133 c0 161 -15 204 -79 236 -66 34 -130 22 -181 -33 -24 -26 -25 -35 -30 -179
l-5 -152 -227 -3 -228 -2 0 143 c0 133 -2 147 -23 178 -45 68 -143 88 -205 42
-52 -39 -62 -75 -62 -225 l0 -138 -225 0 -225 0 0 132 c0 161 -15 204 -84 237
-54 27 -91 26 -139 -1z m-77 -885 c0 -142 14 -191 65 -231 38 -30 125 -31 166
-1 56 40 69 83 69 229 l0 130 225 0 225 0 0 -135 c0 -150 7 -174 60 -219 61
-51 178 -28 215 43 11 23 15 63 15 171 l0 140 225 0 225 0 0 -116 c0 -145 12
-195 57 -234 30 -26 41 -30 95 -30 58 0 63 2 98 39 44 46 50 73 50 229 l0 112
225 0 225 0 0 -131 c0 -146 10 -180 63 -225 28 -23 38 -26 94 -22 114 7 143
61 143 262 l0 116 225 0 225 0 0 -146 0 -147 44 -43 c40 -41 47 -44 96 -44 64
0 111 26 134 74 12 26 16 66 16 170 l0 136 225 0 225 0 0 -129 c0 -145 10
-183 60 -225 25 -20 42 -26 81 -26 60 0 100 19 131 62 21 30 23 45 26 176 l4
142 224 0 224 0 0 -122 c0 -148 10 -187 56 -227 29 -26 43 -31 87 -31 58 0
107 24 129 62 8 15 15 75 18 168 l5 145 228 3 227 2 0 -142 c0 -130 2 -144 22
-174 31 -45 68 -64 123 -64 52 0 90 18 120 58 17 24 20 46 23 175 l3 147 210
0 209 0 -2 -342 -3 -343 -3097 -2 c-1703 -2 -3104 0 -3112 3 -14 5 -16 46 -16
338 0 183 3 336 7 339 3 4 69 7 145 7 l138 0 0 -127z m5940 -1824 c0 -792 -1
-871 -16 -865 -9 3 -66 33 -127 67 -163 88 -211 102 -327 97 -81 -4 -104 -9
-157 -36 -111 -57 -207 -180 -243 -310 -6 -24 -26 -60 -44 -80 -50 -56 -341
-444 -368 -491 -12 -22 -28 -41 -34 -41 -16 0 -64 273 -64 369 0 20 16 76 36
125 46 114 70 201 83 306 28 220 -3 438 -90 628 l-29 63 25 43 c37 62 55 122
65 210 12 98 0 151 -46 204 -71 83 -156 101 -406 83 l-158 -11 -106 35 c-172
56 -300 48 -468 -30 -75 -34 -126 -35 -231 0 -186 60 -420 93 -569 79 -84 -7
-172 -43 -213 -86 -15 -17 -52 -46 -81 -65 -79 -50 -141 -117 -198 -213 -72
-121 -86 -166 -86 -268 0 -122 32 -201 120 -294 113 -119 239 -191 470 -267
l147 -49 83 -98 c147 -175 270 -373 340 -549 67 -168 103 -316 182 -745 11
-63 25 -133 30 -155 10 -42 30 -153 30 -167 0 -4 -849 -7 -1888 -6 l-1887 3
-3 1693 -2 1692 3115 0 3115 0 0 -871z m-3043 40 c74 -10 119 -21 278 -68 39
-12 112 -24 163 -28 103 -7 178 8 289 59 76 34 117 35 213 4 108 -35 191 -49
260 -44 52 4 60 2 54 -11 -27 -62 -35 -99 -29 -130 8 -42 30 -88 56 -116 32
-35 86 -167 103 -249 34 -166 14 -325 -62 -491 -43 -93 -46 -106 -50 -202 -7
-153 12 -304 64 -523 50 -209 129 -393 192 -448 71 -61 187 -80 260 -43 49 25
57 36 135 173 125 219 338 519 485 681 70 77 94 119 123 212 10 34 28 73 38
86 17 21 20 22 52 9 19 -8 88 -44 155 -80 66 -36 152 -78 192 -94 39 -16 72
-36 74 -44 2 -9 2 -273 0 -589 l-2 -573 -1029 0 -1028 0 -16 67 c-9 38 -25
120 -37 183 -11 63 -25 135 -30 160 -5 25 -12 74 -15 110 -9 85 -49 275 -80
380 -112 375 -308 720 -573 1008 -87 96 -128 124 -196 136 -156 29 -410 147
-452 211 -14 21 -14 27 2 57 32 63 64 97 125 129 34 18 68 43 77 56 14 19 26
22 74 23 31 0 92 -5 135 -11z"/>
<path d="M1625 3074 c-266 -43 -495 -242 -575 -500 -99 -322 52 -682 351 -839
120 -63 188 -79 334 -79 142 -1 216 16 322 72 69 35 172 111 184 134 9 17 7
18 -18 11 -15 -4 -73 -7 -128 -7 -118 1 -185 22 -281 90 -251 177 -282 546
-63 764 113 111 277 167 425 142 37 -6 71 -9 73 -6 12 12 -148 131 -215 159
-99 42 -161 56 -269 60 -60 2 -123 1 -140 -1z"/>
<path d="M2217 2637 c-27 -72 -52 -139 -56 -147 -6 -11 -38 -17 -132 -22 -68
-4 -138 -9 -155 -10 -30 -3 -25 -8 93 -96 91 -69 123 -98 119 -110 -34 -110
-77 -275 -73 -279 5 -4 74 41 214 140 39 27 44 29 60 15 17 -14 193 -135 222
-153 18 -11 10 32 -30 163 -17 53 -33 105 -35 114 -4 12 29 42 120 110 l126
93 -155 10 c-85 6 -158 15 -163 20 -5 6 -28 66 -51 134 -23 68 -45 130 -49
137 -5 9 -25 -35 -55 -119z"/>
</g>
</svg>
